<?xml version="1.0" standalone="no"?>
<!DOCTYPE svg PUBLIC "-//W3C//DTD SVG 1.1//EN" "http://www.w3.org/Graphics/SVG/1.1/DTD/svg11.dtd">
<svg xmlns="http://www.w3.org/2000/svg" xmlns:xlink="http://www.w3.org/1999/xlink" version="1.1"
    width="210mm" height="297mm" viewBox="0 0 210 297">
	<!--
	  - 背景
	  -->
  <g>
	  <rect x="0" y="0" width="100%" height="100%" fill="white" />
  </g>
  
  <!--
    - 入力
    -->
  <g id="forms" fill="blue" stroke="blue" stroke-width="0.2" font-size="3" font-family="sans-serif">
    <!-- 年金事務所 -->
    <g stroke="none">
      <text x="12.7" y="63.8">61クセリ</text>
      <text x="48.9" y="63.8">01234</text>
      <text letter-spacing="4" x="77" y="63.8">5678</text>
    </g>
    
    <!-- 賞与支払予定年月 -->
    <g fill="none">
      <circle cx="105.8" cy="77.6" r="2" />
      <circle cx="105.8" cy="82.4" r="2" />
    </g>
    <g stroke="none">
      <text x="22.8" y="80.8">29</text>
      <text x="36.5" y="80.8">12</text>
      <text letter-spacing="4" x="63.5" y="83.8">29</text>
      <text letter-spacing="4" x="74.6" y="83.8">12</text>
    </g>
    
    <!-- 賞与を支給した被保険者数 -->
    <g stroke="none">
      <text letter-spacing="4" x="13.2" y="107.8">000001</text>
      <text letter-spacing="4" x="47.4" y="107.8">1000000000</text>
    </g>
    
    <!-- 被保険者人数 -->
    <g stroke="none">
      <text letter-spacing="4" x="13.2" y="127.7">000001</text>
    </g>
    
    <!-- 賞与の名称 -->
    <g stroke="none">
      <text x="13.2" y="152.5">賞与</text>
      <text x="65.4" y="152.5">04</text>
      <text x="76.5" y="152.5">07</text>
      <text x="88.1" y="152.5">10</text>
      <text x="99.2" y="152.5">01</text>
      <text letter-spacing="4" x="108.5" y="152.5">04</text>
      <text letter-spacing="4" x="119.9" y="152.5">07</text>
      <text letter-spacing="4" x="131" y="152.5">10</text>
      <text letter-spacing="4" x="142.3" y="152.5">01</text>
    </g>
    
    <!-- 社会保険労務士記載欄 -->
    <g stroke="none">
      <text x="13.2" y="193.3">aaa</text>
    </g>
    
    <!-- 事業所所在地 -->
    <g stroke="none">
      <text x="47.1" y="205.3">000</text>
      <text x="61.1" y="205.3">1111</text>
      <text x="47.1" y="210.7">東京都○○区△△町　１－２－３</text>
      <text x="47.1" y="221.2">○○事業所</text>
      <text x="47.1" y="233.9">保険　太郎</text>
      <text x="47.6" y="242.6">03</text>
      <text x="64" y="242.6">1234</text>
      <text x="97.1" y="242.6">5678</text>
    </g>
    
    <!-- 社労士コード -->
    <g stroke="none">
      <text x="147.9" y="58.8">0000</text>
      <text x="173" y="58.8">23</text>
    </g>
    
    <!-- 提出年月日 -->
    <g stroke="none">
      <text x="138.6" y="165">29</text>
      <text x="158.8" y="165">12</text>
      <text x="177.3" y="165">25</text>
    </g>
  </g>
	
	<!--
	  - 罫線
	  -->
  <g id="frame" fill="black" stroke="black" stroke-width="0.2" font-size="3">
    <!-- QR Code -->
    <g>
      <use x="667.3" y="6" transform="scale(0.3)" xlink:href="#qr" />
    </g>
    
    <!-- Bar Code -->
    <g>
      <use x="383.5" y="34" transform="scale(0.37 0.6)" xlink:href="#bar" />
    </g>
    
    <!-- タイトル -->
    <g stroke="none">
      <text font-size="3.5" x="27" y="27.3">健康保険</text>
      <text font-size="7" x="49.7" y="28.4">被保険者賞与支払届</text>
      <text font-size="7" x="70.6" y="37.9">総括表</text>
    </g>
    
    <!-- 常務理事 -->
    <g fill="none">
      <path d="M116.5,20L204.5,20M116.5,24.5L204.5,24.5M116.5,35L204.5,35M116.5,20L116.5,35M127.5,20L127.5,35M138.5,20L138.5,35M149.5,20L149.5,35M160.5,20L160.5,35M171.5,20L171.5,35M182.5,20L182.5,35M193.5,20L193.5,35M204.5,20L204.5,35" />
    </g>
    <g stroke="none" font-size="2.2">
      <text x="116.7" y="23">常務理事</text>
      <text x="127.8" y="23">事務局長</text>
      <text x="138.9" y="23">部長</text>
      <text x="150" y="23">課長</text>
      <text x="160.9" y="23">課長代理</text>
      <text x="172" y="23">係長</text>
      <text x="183.1" y="23">主任</text>
      <text x="193.9" y="23">係員</text>
    </g>
    
    <!-- 年金事務所 -->
    <g fill="none">
      <path d="M10.5,45L97.5,45M10.5,50.5L97.5,50.5M10.5,55.5L97.5,55.5M10.5,66L97.5,66M10.5,45L10.5,66M46.5,50.5L46.5,66M75,45L75,66M97.5,45L97.5,66" />
      <path stroke-dasharray="0.2 0.2" d="M80.5,55.5L80.5,66M86,55.5L86,66M91.5,55.5L91.5,66" />
    </g>
    <g stroke="none">
      <text x="22.8" y="48.7">年金事務所</text>
      <text x="12" y="54">①事業所整理記号</text>
      <text x="48.2" y="54">②事業所番号</text>
      <text x="76.7" y="48.7">健康保険組合</text>
      <text x="76.7" y="54">健保証の記号</text>
    </g>
    
    <!-- 賞与支払予定年月 -->
    <g fill="none">
      <path d="M10.5,69.5L115.5,69.5M10.5,75L115.5,75M10.5,85.5L115.5,85.5M10.5,69.5L10.5,85.5M50,69.5L50,85.5M72.5,77L72.5,85.5M83.5,69.5L83.5,85.5M115.5,69.5L115.5,85.5" />
      <path stroke-width="0.4" d="M50,75L115.5,75M50,85.5L115.5,85.5M50,75L50,85.5M83.5,75L83.5,85.5" />
      <path stroke-dasharray="0.2 0.2" d="M61,78.5L61,85.5M67,78.5L67,85.5M78,78.5L78,85.5" />
    </g>
    <g stroke="none">
      <use x="12" y="70.5" xlink:href="#c-a" />
      <text x="16.9" y="73.2">賞与支払予定年月</text>
      <text x="12.7" y="81.1">平成　　　　年　　　月</text>
      <text x="51.3" y="73.2">③賞与支払年月</text>
      <text x="51.9" y="81.1">平成</text>
      <text font-size="2" x="69.9" y="77.4">年</text>
      <text font-size="2" x="81.2" y="77.4">月</text>
      <text x="85.2" y="73.2">④支給・不支給</text>
      <text x="91.5" y="79">支給</text>
      <text x="105" y="79">0</text>
      <text x="91.5" y="83.5">不支給</text>
      <text x="105" y="83.5">1</text>
    </g>
    
    <!-- 賞与を支給した被保険者数 -->
    <g fill="none">
      <path d="M10.5,89L119,89M10.5,99.5L119,99.5M10.5,110L119,110M10.5,89L10.5,110M28,103L28,110M45,89L45,110M50.5,103L50.5,110M67.5,103L67.5,110M84.5,103L84.5,110M101.5,103L101.5,110M119,89L119,110" />
      <path stroke-dasharray="0.2 0.2" d="M16.5,103L16.5,110M22,103L22,110M33.5,103L33.5,110M39,103L39,110M56,103L56,110M62,103L62,110M73,103L73,110M79,103L79,110M90,103L90,110M96,103L96,110M107,103L107,110M113,103L113,110" />
    </g>
    <g stroke="none">
      <use x="12" y="92.5" xlink:href="#c-i" />
      <text x="17.5" y="92.7">賞与を支給した</text>
      <text x="17.5" y="98">被保険者数</text>
      <text font-size="2.5" x="42.3" y="102.3">人</text>
      <use x="46.8" y="92.5" xlink:href="#c-u" />
      <text x="57.9" y="95.4">賞与支給総額（千円単位）</text>
      <text font-size="2.5" x="116" y="102.3">円</text>
      <text x="103.7" y="107.8">0</text>
      <text x="109.3" y="107.8">0</text>
      <text x="114.8" y="107.8">0</text>
    </g>
    
    <!-- 被保険者人数 -->
    <g fill="none">
      <path d="M10.5,114L45,114M10.5,119L45,119M10.5,130L45,130M10.5,114L10.5,130M27.5,122.5L27.5,130M45,114L45,130" />
      <path stroke-dasharray="0.2 0.2" d="M16.5,122.5L16.5,130M22,122.5L22,130M33.5,122.5L33.5,130M39,122.5L39,130" />
    </g>
    <g stroke="none">
      <use x="12" y="115" xlink:href="#c-e" />
      <text x="17.2" y="117.6">被保険者人数</text>
      <text font-size="2.5" x="42.3" y="121.3">人</text>
    </g>
    
    <!-- 賞与の名称 -->
    <g fill="none">
      <path d="M10.5,133.5L157,133.5M10.5,144L157,144M10.5,154.5L157,154.5M10.5,133.5L10.5,154.5M60.5,133.5L60.5,154.5M106,133.5L106,154.5M117.5,147.5L117.5,154.5M128.5,147.5L128.5,154.5M140,147.5L140,154.5M151,133.5L151,154.5M157,133.5L157,154.5" />
      <path stroke-dasharray="0.2 0.2" d="M71.5,147.5L71.5,154.5M83,147.5L83,154.5M94.5,147.5L94.5,154.5M111.5,147.5L111.5,154.5M123,147.5L123,154.5M134.5,147.5L134.5,154.5M145.5,147.5L145.5,154.5" />
      <path stroke-width="0.4" d="M106,144L151,144M106,154.5L151,154.5M106,144L106,154.5M151,144L151,154.5" />
    </g>
    <g stroke="none">
      <rect x="151" y="133.5" width="6" height="21" />
      <use x="12" y="137" xlink:href="#c-o" />
      <text x="17.2" y="140.2">賞与の名称</text>
      <use x="62.4" y="137" xlink:href="#c-ka" />
      <text x="67.5" y="137.3">変更前の賞与</text>
      <text x="67.5" y="142.4">支払い予定月</text>
      <text x="107.5" y="139.8">⑤</text>
      <text x="112.7" y="137.3">変更後の賞与</text>
      <text x="112.7" y="142.4">支払い予定月</text>
      <text font-size="2" x="69.3" y="146.4">月</text>
      <text font-size="2" x="80.7" y="146.4">月</text>
      <text font-size="2" x="92.1" y="146.4">月</text>
      <text font-size="2" x="103.5" y="146.4">月</text>
      <text font-size="2" x="115.1" y="146.4">月</text>
      <text font-size="2" x="126.5" y="146.4">月</text>
      <text font-size="2" x="137.8" y="146.4">月</text>
      <text font-size="2" x="148.7" y="146.4">月</text>
    </g>
    
    <!-- 社会保険労働士記載欄 -->
    <g fill="none">
      <path d="M10.5,172.5L117.5,172.5M10.5,178L117.5,178M10.5,196L117.5,196M10.5,172.5L10.5,196M117.5,172.5L117.5,196" />
    </g>
    <g stroke="none">
      <text x="23.8" y="176.1">社会保険労務士記載欄</text>
      <use x="108.7" y="185.4" xlink:href="#c-stamp" />
    </g>
    
    <!-- 事業所所在地 -->
    <g fill="none">
      <path d="M10.5,199.5L142.5,199.5M10.5,247.5L142.5,247.5M10.5,199.5L10.5,247.5M142.5,199.5L142.5,247.5" />
    </g>
    <g stroke="none">
      <text x="14" y="205.5">事業所所在地</text>
      <text x="14" y="217.9">事業所名称</text>
      <text x="14" y="230.3">事業主氏名</text>
      <text x="14" y="242.5">電話</text>
      <text x="39.7" y="205.3">〒　　　　－</text>
      <text x="54" y="242.6">（　　　　　　　）局　　　　　　　　　　番</text>
      <use x="132" y="227" xlink:href="#c-stamp" />
    </g>
    
    <!-- 社労士コード -->
    <g fill="none">
      <path d="M145,45L198.5,45M145,50.5L198.5,50.5M145,61L198.5,61M145,45L145,61M170,45L170,61M198.5,45L198.5,61" />
    </g>
    <g stroke="none">
      <text x="146.8" y="48.7">社労士コード</text>
      <text x="172" y="48.7">賞与支払届通番</text>
    </g>
    
    <!-- 提出年月日 -->
    <g stroke="none">
      <text x="125.4" y="165">平成　　　　　年　　　　　　月　　　　　日　提出</text>
    </g>
    
    <!-- 受付日付印 -->
    <g fill="none">
      <path stroke-dasharray="0.2 0.2" d="M152,176L156,169L192,169L196,176" />
    </g>
    <g stroke="none">
      <text x="165.4" y="175.2">受付日付印</text>
    </g>
    
    <!-- 注意書き等 -->
    <g stroke="none">
      <text x="171.7" y="11.7">健康保険組合用</text>
      <text writing-mode="tb-rl" x="204.5" y="44.5">②　事業所→健康保険組合</text>
      <text x="17.5" y="253.6">【記入上の注意】</text>
      <text x="17.5" y="257">1.</text>
      <text x="23.5" y="257">④は、賞与の支給が有ったとき、支給「0」に丸印を付けて下さい。</text>
      <text x="23.5" y="261">また、支給が無かったとき、不支給「1」に丸印を付けて下さい。</text>
      <text x="17.5" y="265">2.</text>
      <use x="23.5" y="262.3" xlink:href="#c-u" />
      <text x="23.5" y="265">　 は、全被保険者の賞与支払届⑤欄「賞与額（合計）を総計した額を記入して下さい。</text>
      <text x="17.5" y="269">3.</text>
      <use x="23.5" y="266.3" xlink:href="#c-e" />
      <text x="23.5" y="269">　 は、賞与を支給した日現在の被保険者数を記入して下さい。</text>
      <text x="17.5" y="273">4.</text>
      <use x="23.5" y="270.3" xlink:href="#c-o" />
      <text x="23.5" y="273">　 は、賞与、決算手当、期末手当のように支給した賞与の種類別にその名称を記入して下さい。</text>
      <text x="17.5" y="277">5.</text>
      <use x="65.9" y="274.3" xlink:href="#c-ka" />
      <text x="23.5" y="277">⑤は、現在の賞与支払予定月が　 の賞与支払予定月と異なるとき記入して下さい。</text>
      <text x="17.5" y="281">6.</text>
      <use x="55.8" y="278.3" xlink:href="#c-i" />
      <use x="63.5" y="278.3" xlink:href="#c-u" />
      <text x="23.5" y="281">賞与の支給が無い場合、　 、　 に記入しないで下さい。</text>
      <text x="17.5" y="285">7.</text>
      <text x="23.5" y="285">事業主の押印については、署名（自筆）の場合は省略できます。</text>
      <text font-size="2.5" x="177.3" y="290.4">平成29年5月30日改訂</text>
    </g>
  </g>
  
	<defs>
    <g id="soushin">
      <rect stroke="none" fill="black" x="0" y="0" width="11" height="30" />
    </g>
    <g id="c-a">
		  <circle stroke="black" fill="none" cx="1.5" cy="1.5" r="1.5" />
		  <text font-size="2.3" x="0.4" y="2.5">ア</text>
	  </g>
	  <g id="c-i">
		  <circle stroke="black" fill="none" cx="1.5" cy="1.5" r="1.5" />
		  <text font-size="2.3" x="0.4" y="2.5">イ</text>
	  </g>
	  <g id="c-u">
		  <circle stroke="black" fill="none" cx="1.5" cy="1.5" r="1.5" />
		  <text font-size="2.3" x="0.4" y="2.5">ウ</text>
	  </g>
	  <g id="c-e">
		  <circle stroke="black" fill="none" cx="1.5" cy="1.5" r="1.5" />
		  <text font-size="2.3" x="0.4" y="2.5">エ</text>
	  </g>
	  <g id="c-o">
		  <circle stroke="black" fill="none" cx="1.5" cy="1.5" r="1.5" />
		  <text font-size="2.3" x="0.4" y="2.5">オ</text>
	  </g>
	  <g id="c-ka">
		  <circle stroke="black" fill="none" cx="1.5" cy="1.5" r="1.5" />
		  <text font-size="2.3" x="0.4" y="2.5">カ</text>
	  </g>
	  <g id="c-ki">
		  <circle stroke="black" fill="none" cx="1.5" cy="1.5" r="1.5" />
		  <text font-size="2.3" x="0.4" y="2.5">キ</text>
	  </g>
	  <g id="c-ku">
		  <circle stroke="black" fill="none" cx="1.5" cy="1.5" r="1.5" />
		  <text font-size="2.3" x="0.4" y="2.5">ク</text>
	  </g>
	  <g id="c-ke">
		  <circle stroke="black" fill="none" cx="1.5" cy="1.5" r="1.5" />
		  <text font-size="2.3" x="0.4" y="2.5">ケ</text>
	  </g>
	  <g id="c-ko">
		  <circle stroke="black" fill="none" cx="1.5" cy="1.5" r="1.5" />
		  <text font-size="2.3" x="0.4" y="2.5">コ</text>
	  </g>
	  <g id="c-sa">
		  <circle stroke="black" fill="none" cx="1.5" cy="1.5" r="1.5" />
		  <text font-size="2.3" x="0.4" y="2.5">サ</text>
	  </g>
	  <g id="c-si">
		  <circle stroke="black" fill="none" cx="1.5" cy="1.5" r="1.5" />
		  <text font-size="2.3" x="0.4" y="2.5">シ</text>
	  </g>
	  <g id="c-su">
		  <circle stroke="black" fill="none" cx="1.5" cy="1.5" r="1.5" />
		  <text font-size="2.3" x="0.4" y="2.5">ス</text>
	  </g>
	  <g id="c-se">
		  <circle stroke="black" fill="none" cx="1.5" cy="1.5" r="1.5" />
		  <text font-size="2.3" x="0.4" y="2.5">セ</text>
	  </g>
	  <g id="c-so">
		  <circle stroke="black" fill="none" cx="1.5" cy="1.5" r="1.5" />
		  <text font-size="2.3" x="0.4" y="2.5">ソ</text>
	  </g>
	  <g id="c-ta">
		  <circle stroke="black" fill="none" cx="1.5" cy="1.5" r="1.5" />
		  <text font-size="2.3" x="0.4" y="2.5">タ</text>
	  </g>
	  <g id="c-stamp">
		  <circle stroke="black" fill="none" cx="2.5" cy="2.5" r="2.5" />
		  <text font-size="3" x="1" y="3.5">印</text>
	  </g>
	</defs>
</svg>