<?xml version="1.0" standalone="no"?>
<!DOCTYPE svg PUBLIC "-//W3C//DTD SVG 1.1//EN" "http://www.w3.org/Graphics/SVG/1.1/DTD/svg11.dtd">
<svg version="1.1"
    xmlns="http://www.w3.org/2000/svg"
    xmlns:xlink="http://www.w3.org/1999/xlink"
    width="297mm" height="210mm"
    viewBox="0 0 297 210">
	<defs>
  <style><![CDATA[
  .bold-label {
	font-weight:bold;
	font-family:sans-serif;
  }
  ]]></style>
	</defs>
  <!--
    - 罫線
    -->
  <g id="frame" fill="black" stroke="black" stroke-width="0.2" font-family="serif">
    <!-- タイトル -->
    <g stroke="none" font-size="6">
      <text text-anchor="middle" x="148.5" y="9.2" font-family="sans-serif" font-weight="700">平成３０年分　給与所得者の扶養控除等（異動）申告書</text>
    </g>

    <!-- 入力エリア１ -->
    <g fill="none">
      <rect stroke-width="0.4" x="10.2" y="11.2" rx="2" ry="2" width="236" height="29.5" />
      <path d="M136.1,15.3L188.6,15.3M10.2,17L35,17M188.6,17L246.2,17M35.5,23L246.2,23M10.2,29L35,29M35.5,31L246.2,31" />
      <path d="M35,11.2L35,40.7M35.5,11.2L35.5,40.7M59.5,11.2L59.5,40.7M64,25.3L64,31M81.5,25.3L81.5,31M99,25.3L99,31M116.5,11.2L116.5,40.7M117.1,11.2L117.1,40.7M136.1,11.2L136.1,40.7M153.6,25.3L153.6,31M171.1,25.3L171.1,31M188.6,11.2L188.6,31M204.1,11.2L204.1,31M222,31L222,40.7M231.9,31L231.9,40.7" />
      <path stroke-dasharray="0.2 0.2" d="M68.3,26.7L68.3,31M72.7,26.7L72.7,31M77,26.7L77,31M85.8,26.7L85.8,31M90.2,26.7L90.2,31M94.6,26.7L94.6,31M103.4,26.7L103.4,31M107.7,26.7L107.7,31M112.2,26.7L112.2,31M140.5,26.7L140.5,31M144.8,26.7L144.8,31M149.3,26.7L149.3,31M158,26.7L158,31M162.4,26.7L162.4,31M166.8,26.7L166.8,31M175.6,26.7L175.6,31M179.9,26.7L179.9,31M184.3,26.7L184.3,31" />
      <rect stroke-width="0.4" x="246.2" y="11.2" rx="2" ry="2" width="18.5" height="29.5" />
      <path d="M246.2,34L264.7,34" />
      <path d="M248.2,24.6C247.5,24.6 247.5,30.7 248.2,30.7M262.3,24.6C263.2,24.6 263.2,30.7 262.3,30.7" />
    </g>
    <g font-size="2.5" stroke="none">
      <text letter-spacing="-0.5" text-anchor="middle" x="22.60" y="14.60">所轄税務署長等</text>
      <text letter-spacing="-0.5" text-anchor="end"    x="34" y="27">税務署長</text>
      <text letter-spacing="-0.5" text-anchor="end"    x="34" y="38.7">市区町村長</text>
      <text letter-spacing="-0.5" text-anchor="middle" x="47.50" y="16.10"><tspan>給与の支払者</tspan><tspan x="47.50" y="19.10">の名称（氏名）</tspan></text>
      <text letter-spacing="-0.5" text-anchor="middle" x="47.50" y="26.50"><tspan>給与の支払者</tspan><tspan x="47.50" y="29.00">の法人（個人）番号</tspan></text>
      <text font-size="1.5" letter-spacing="-0.5" x="60" y="24.5">※この申告書の提出を受けた給与の支払者が記載してください。</text>
      <text letter-spacing="-0.5" text-anchor="middle" x="47.50" y="34.85"><tspan>給与の支払者</tspan><tspan x="47.50" y="37.85">の所在地（住所）</tspan></text>
      <text letter-spacing="-0.5" text-anchor="middle" x="126.60" y="13.75">（フリガナ）</text>
      <text letter-spacing="-0.5" text-anchor="middle" x="126.60" y="19.65">あなたの氏名</text>
      <text font-size="2" text-anchor="middle" x="126.60" y="27.50">あなたの個人番号</text>
      <text letter-spacing="-0.5" text-anchor="middle" x="126.60" y="34.85">あなたの住所</text>
      <text letter-spacing="-0.5" text-anchor="middle" x="126.60" y="37.85">又は居所</text>
      <text letter-spacing="-0.5" x="136.1" y="33.5">（郵便番号</text>
      <text letter-spacing="-0.5" x="156.5" y="33.5">‐</text>
      <text letter-spacing="-0.5" x="169.2" y="33.5">）</text>
      <text font-size="2" text-anchor="middle" x="196.35" y="14.10">あなたの生年月日</text>
      <text letter-spacing="-0.5" x="204.6" y="13.6">明・大</text>
      <text letter-spacing="-0.5" x="204.6" y="16.1">昭・平</text>
      <text letter-spacing="-0.5" text-anchor="end" x="221.2" y="14.85">年</text>
      <text letter-spacing="-0.5" text-anchor="end" x="231.8" y="14.85">月</text>
      <text letter-spacing="-0.5" text-anchor="end" x="242.8" y="14.85">日</text>
      <text font-size="2" text-anchor="middle" x="196.35" y="20.00">世帯主の氏名</text>
      <text font-size="2" text-anchor="middle" x="196.35" y="27.00">あなたとの続柄</text>
      <text letter-spacing="-0.5" text-anchor="middle" x="226.95" y="34.85"><tspan>配偶者</tspan><tspan x="226.95" y="37.85">の有無</tspan></text>
      <text letter-spacing="-0.5" text-anchor="middle" x="239.05" y="36.6">有・無</text>
      <text letter-spacing="-0.5" text-anchor="middle" x="255.45" y="17.7" class="bold-label"><tspan>従たる給与につ</tspan><tspan x="255.45" y="20.5">いての扶養控除</tspan><tspan x="255.45" y="23.3">等申告書の提出</tspan></text>
      <text font-size="1.5" letter-spacing="-0.5" x="249.4" y="26.3"><tspan textLength="12">提出している場合</tspan><tspan x="249.4" y="28.2" textLength="12">には、〇印を付け</tspan><tspan x="249.4" y="30.1" textLength="9">てください。</tspan></text>
    </g>
    <g>
      <use x="184.7" y="19.1" xlink:href="#c-stamp-m" />
    </g>

    <!-- 入力エリア２ -->
    <g fill="none">
      <rect stroke-width="0.4" x="10.2" y="45" rx="2" ry="2" width="254.5" height="104.4" />
      <path d="M71.2,51.4L175.2,51.4M16.1,57.6L264.7,57.6M35,61.5L71.2,61.5M71.2,64.6L125.4,64.6M146.7,64.6L175.2,64.6M16.1,70.1L264.7,70.1M38,74.1L71.2,74.1M71.2,77.1L175.2,77.1M35,82.6L264.7,82.6M38,86.6L71.2,86.6M71.2,89.6L175.2,89.6M35,95.2L264.7,95.2M38,99.2L71.2,99.2M71.2,102.2L175.2,102.2M35,107.7L264.7,107.7M38,111.7L71.2,111.7M71.2,114.7L175.2,114.7M16.1,120.3L264.7,120.3M125.4,124.5L264.7,124.5M125.4,137.1L264.7,137.1" />
      <path d="M16.1,45L16.1,149.4M35,45L35,149.4M71.2,45L71.2,120.3M125.4,45L125.4,149.4M146.7,45L146.7,120.3M175.2,45L175.2,120.3M233,45L233,137.1M98.3,51.4L98.3,57.6M156.8,51.4L156.8,57.6M89.3,60.6L89.3,64.6M107.4,60.6L107.4,64.6M98.3,64.6L98.3,70.1M156.8,64.6L156.8,70.1M38,70.1L38,120.3M89.3,73.1L89.3,77.1M107.4,73.1L107.4,77.1M98.3,77.1L98.3,82.6M156.8,77.1L156.8,82.6M89.3,73.1L89.3,77.1M107.4,73.1L107.4,77.1M98.3,77.1L98.3,82.6M156.8,77.1L156.8,82.6M89.3,85.6L89.3,89.6M107.4,85.6L107.4,89.6M98.3,89.6L98.3,95.2M156.8,89.6L156.8,95.2M89.3,98.2L89.3,102.2M107.4,98.2L107.4,102.2M98.3,102.2L98.3,107.7M156.8,102.2L156.8,107.7M89.3,110.7L89.3,114.7M107.4,110.7L107.4,114.7M98.3,114.7L98.3,120.3M156.8,114.7L156.8,120.3" />
      <path d="M146.7,57.6L125.4,70.1M98.3,64.6L71.2,70.1M175.2,64.6L156.8,70.1" />
      <path stroke-dasharray="0.2 0.2" d="M75.7,61.9L75.7,64.6M80.2,61.9L80.2,64.6M84.8,61.9L84.8,64.6M93.8,61.9L93.8,64.6M98.3,61.9L98.3,64.6M102.8,61.9L102.8,64.6M111.9,61.9L111.9,64.6M116.4,61.9L116.4,64.6M121,61.9L121,64.6M75.7,74.4L75.7,77.1M80.2,74.4L80.2,77.1M84.8,74.4L84.8,77.1M93.8,74.4L93.8,77.1M98.3,74.4L98.3,77.1M102.8,74.4L102.8,77.1M111.9,74.4L111.9,77.1M116.4,74.4L116.4,77.1M121,74.4L121,77.1M75.7,86.9L75.7,89.6M80.2,86.9L80.2,89.6M84.8,86.9L84.8,89.6M93.8,86.9L93.8,89.6M98.3,86.9L98.3,89.6M102.8,86.9L102.8,89.6M111.9,86.9L111.9,89.6M116.4,86.9L116.4,89.6M121,86.9L121,89.6M75.7,99.5L75.7,102.2M80.2,99.5L80.2,102.2M84.8,99.5L84.8,102.2M93.8,99.5L93.8,102.2M98.3,99.5L98.3,102.2M102.8,99.5L102.8,102.2M111.9,99.5L111.9,102.2M116.4,99.5L116.4,102.2M121,99.5L121,102.2M75.7,112.1L75.7,114.7M80.2,112.1L80.2,114.7M84.8,112.1L84.8,114.7M93.8,112.1L93.8,114.7M98.3,112.1L98.3,114.7M102.8,112.1L102.8,114.7M111.9,112.1L111.9,114.7M116.4,112.1L116.4,114.7M121,112.1L121,114.7" />
      <path d="M49,122.2L106.2,122.2M49,127.9L106.2,127.9M49,133.6L106.2,133.6M49,139.4L106.2,139.4M49,145.1L106.2,145.1" />
      <path d="M49.1,122.2L49.1,145.1M67.1,122.2L67.1,145.1M80.1,122.2L80.1,145.1M93.2,122.2L93.2,145.1M106.1,122.2L106.1,145.1" />
      <path d="M49.1,122.2L67.1,127.9M80.1,139.4L67.1,145.1" />
    </g>
    <g font-size="3" stroke="none">
      <text font-size="2.5" letter-spacing="-0.5" x="11.2" y="43.6" textLength="254">あなたに現存控除対象配偶者、障害者に該当する同一生計配偶者及び扶養親族がなく、かつ、あなた自身が障害者、寡婦、寡夫又は勤労学生のいずれにも該当しない場合には、以下の各欄に記入する必要はありません。</text>
      <text text-anchor="middle" writing-mode="tb-rl" x="13.65" y="97.20" class="bold-label">主たる給与から控除を受ける</text>
      <text text-anchor="middle" x="25.55" y="51.80">区分等</text>
      <text text-anchor="middle" x="53.10" y="50.30">（フリガナ）</text>
      <text text-anchor="middle" x="53.10" y="53.30">氏名</text>
      <text text-anchor="middle" x="98.30" y="48.70">個人番号</text>
      <text text-anchor="middle" x="84.75" y="55.00">あなたとの続柄</text>
      <text text-anchor="middle" x="111.85" y="55.00">生年月日</text>
      <text font-size="2" text-anchor="middle" x="136.05" y="47.20">老人扶養家族</text>
      <text font-size="1.5" letter-spacing="-0.5" text-anchor="middle" x="136.05" y="49.70">（昭24. 1. 1以前生）</text>
      <text font-size="2" text-anchor="middle" x="136.05" y="53.50">特定扶養親族</text>
      <text font-size="1.5" letter-spacing="-0.5" text-anchor="middle" x="136.05" y="56.00">（平8. 1. 2生～平成12. 1. 1生）</text>
      <text font-size="2" text-anchor="middle" x="160.95" y="47.20">平成30年中の</text>
      <text font-size="2" text-anchor="middle" x="160.95" y="49.20">所得の見積額</text>
      <text font-size="2" text-anchor="middle" x="151.75" y="53.50">非居住者</text>
      <text font-size="2" text-anchor="middle" x="151.75" y="55.50">である親族</text>
      <text font-size="2" text-anchor="middle" x="166.00" y="53.50">生計を一に</text>
      <text font-size="2" text-anchor="middle" x="166.00" y="55.50">する事実</text>
      <text text-anchor="middle" x="204.10" y="51.50">住所又は居所</text>
      <text text-anchor="middle" x="248.85" y="50.30">異動月日及び事由</text>
      <text font-size="1.5" letter-spacing="-0.5" text-anchor="middle" x="248.85" y="53.30">平成30年中に異動があった場合</text>
      <text font-size="1.5" letter-spacing="-0.5" text-anchor="middle" x="248.85" y="55.80">に記載してください(以下同じ。)。</text>
      <text x="16.5" y="64.35">A</text>
      <text text-anchor="middle" x="26.95" y="61.35" class="bold-label" textLength="15">源泉控除</text>
      <text text-anchor="middle" x="26.95" y="64.35" class="bold-label" textLength="15">対象配偶者</text>
      <text text-anchor="middle" x="26.95" y="67.35" class="bold-label" >（注１）</text>
      <text font-size="2" x="98.8" y="66.1">明・大</text>
      <text font-size="2" x="98.8" y="68.6">昭・平</text>
      <text text-anchor="middle" x="111.3" y="67.85">・</text>
      <text text-anchor="middle" x="119.6" y="67.85">・</text>
      <text text-anchor="end" x="174.2" y="61.10">円</text>
      <text x="16.5" y="95.70">B</text>
      <text text-anchor="middle" x="26.95" y="91.20" class="bold-label" textLength="15">控除対象</text>
      <text text-anchor="middle" x="26.95" y="94.20" class="bold-label" textLength="15">扶養親族</text>
      <text text-anchor="middle" x="26.95" y="97.20" class="bold-label" textLength="15">(16歳以上)</text>
      <text font-size="2" text-anchor="middle" x="26.95" y="100.20" class="bold-label">（平15.1.1以前生）</text>
      <text text-anchor="middle" x="36.50" y="76.85">1</text>
      <text font-size="2" x="98.8" y="78.6">明・大</text>
      <text font-size="2" x="98.8" y="81.1">昭・平</text>
      <text text-anchor="middle" x="111.3" y="80.35">・</text>
      <text text-anchor="middle" x="119.6" y="80.35">・</text>
      <text font-size="2.5" letter-spacing="-0.5" x="126.4" y="73.10">□　同居老親等</text>
      <text font-size="2.5" letter-spacing="-0.5" x="126.4" y="75.60">□　その他</text>
      <text font-size="2.5" letter-spacing="-0.5" x="126.4" y="80.35">□　特定扶養親族</text>
      <text text-anchor="end" x="174.2" y="74.10">円</text>
      <text text-anchor="middle" x="36.50" y="89.40">2</text>
      <text font-size="2" x="98.8" y="91.15">明・大</text>
      <text font-size="2" x="98.8" y="93.65">昭・平</text>
      <text text-anchor="middle" x="111.3" y="92.90">・</text>
      <text text-anchor="middle" x="119.6" y="92.90">・</text>
      <text font-size="2.5" letter-spacing="-0.5" x="126.4" y="85.60">□　同居老親等</text>
      <text font-size="2.5" letter-spacing="-0.5" x="126.4" y="88.10">□　その他</text>
      <text font-size="2.5" letter-spacing="-0.5" x="126.4" y="93.15">□　特定扶養親族</text>
      <text text-anchor="end" x="174.2" y="86.60">円</text>
      <text text-anchor="middle" x="36.50" y="101.95">3</text>
      <text font-size="2" x="98.8" y="103.70">明・大</text>
      <text font-size="2" x="98.8" y="106.2">昭・平</text>
      <text text-anchor="middle" x="111.3" y="105.45">・</text>
      <text text-anchor="middle" x="119.6" y="105.45">・</text>
      <text font-size="2.5" letter-spacing="-0.5" x="126.4" y="98.20">□　同居老親等</text>
      <text font-size="2.5" letter-spacing="-0.5" x="126.4" y="100.70">□　その他</text>
      <text font-size="2.5" letter-spacing="-0.5" x="126.4" y="105.7">□　特定扶養親族</text>
      <text text-anchor="end" x="174.2" y="99.20">円</text>
      <text text-anchor="middle" x="36.50" y="114.50">4</text>
      <text font-size="2" x="98.8" y="116.25">明・大</text>
      <text font-size="2" x="98.8" y="118.75">昭・平</text>
      <text text-anchor="middle" x="111.3" y="118.00">・</text>
      <text text-anchor="middle" x="119.6" y="118.00">・</text>
      <text font-size="2.5" letter-spacing="-0.5" x="126.4" y="110.70">□　同居老親等</text>
      <text font-size="2.5" letter-spacing="-0.5" x="126.4" y="113.20">□　その他</text>
      <text font-size="2.5" letter-spacing="-0.5" x="126.4" y="118.25">□　特定扶養親族</text>
      <text text-anchor="end" x="174.2" y="111.70">円</text>
      <text x="16.5" y="135.35">C</text>
      <text font-size="2.5" letter-spacing="-0.5"  text-anchor="middle" x="26.95" y="132.35" class="bold-label" textLength="15">障害者、寡</text>
      <text font-size="2.5" letter-spacing="-0.5"  text-anchor="middle" x="26.95" y="135.35" class="bold-label" textLength="15">婦、寡夫又は</text>
      <text font-size="2.5" letter-spacing="-0.5"  text-anchor="middle" x="26.95" y="138.35" class="bold-label" textLength="15">勤労学生</text>
      <text font-size="2.5" letter-spacing="-0.5" text-anchor="middle" x="42.05" y="125.05">□ 障害者</text>
      <text font-size="2" x="50.1" y="126.4">区分</text>
      <text font-size="2" text-anchor="end" x="66.1" y="124.2">該当者</text>
      <text font-size="2.5" letter-spacing="-0.5" text-anchor="middle" x="73.60" y="125.8">本人</text>
      <text font-size="2" text-anchor="middle" x="86.65" y="124.05">同一生計</text>
      <text font-size="2" text-anchor="middle" x="86.65" y="126.05">配偶者(注2)</text>
      <text font-size="2.5" letter-spacing="-0.5" text-anchor="middle" x="99.65" y="125.8">扶養親族</text>
      <text font-size="2.5" letter-spacing="-0.5" text-anchor="middle" x="58.10" y="131.5">一般の障害者</text>
      <text font-size="2" text-anchor="end" x="100.7" y="130.75">（</text>
      <text font-size="2" text-anchor="end" x="107.1" y="130.75">人）</text>
      <text font-size="2.5" letter-spacing="-0.5" text-anchor="middle" x="58.10" y="137.25">特別障害者</text>
      <text font-size="2" text-anchor="end" x="100.7" y="136.50">（</text>
      <text font-size="2" text-anchor="end" x="107.1" y="136.50">人）</text>
      <text font-size="2.5" letter-spacing="-0.5" text-anchor="middle" x="58.10" y="143">同居特別障害者</text>
      <text font-size="2" text-anchor="end" x="100.7" y="142.25">（</text>
      <text font-size="2" text-anchor="end" x="107.1" y="142.25">人）</text>
      <text font-size="2.5" letter-spacing="-0.5" x="107.1" y="125.05">□ 寡婦</text>
      <text font-size="2.5" letter-spacing="-0.5" x="107.1" y="131.5">□ 特別の寡婦</text>
      <text font-size="2.5" letter-spacing="-0.5" x="107.1" y="137.25">□ 寡夫</text>
      <text font-size="2.5" letter-spacing="-0.5" x="107.1" y="143">□ 勤労学生</text>
      <text font-size="2" x="35.5" y="147.25">上の該当する項目及び欄にチェックを付け、( )内には該当する扶養親族の人数を記入してください。</text>
      <text x="126.4" y="123.15">
        <tspan font-size="2.5" y="123.15">左記の内容</tspan>
        <tspan font-size="2" y="122.65">（この欄の記載に当たっては、裏面の「２ 記載についてのご注意の(8)をお読みください。）</tspan>
      </text>
    </g>
    <g font-size="3" stroke="none" class="bold-label">
      <text font-size="2" text-anchor="middle" x="248.85" y="123.15">異動月日及び事由</text>
      <text font-size="1.6" letter-spacing="-0.5" x="125.4" y="140.25" textLength="5">（注）</text>
      <text font-size="1.6" letter-spacing="-0.5" x="129.9" y="140.25" textLength="130">１</text>
      <text font-size="1.6" letter-spacing="-0.5" x="132.9" y="140.25" textLength="130">源泉控除対象配偶者とは、所得者（平成30年中の所得の見積額が900万円以下の人に限ります。）と生計を一にする配偶者（青色事業専従者として給与の</text>
      <text font-size="1.6" letter-spacing="-0.5" x="132.9" y="142.25" textLength="94">支払を受ける人及び白色事業専従者を除きます。）で、平成30年中の所得の見積額が85万円以下の人をいいます。</text>
      <text font-size="1.6" letter-spacing="-0.5" x="129.9" y="144.25" textLength="130">２</text>
      <text font-size="1.6" letter-spacing="-0.5" x="132.9" y="144.25" textLength="130">同一生計配偶者とは、所得者と生計を一にする配偶者（青色事業専従者として給与の支払を受ける人及び白色事業専従者を除きます。）で、平成30年中の</text>
      <text font-size="1.6" letter-spacing="-0.5" x="132.9" y="146.25" textLength="35">所得の見積額が38万円以下の人をいいます。</text>
    </g>

    <!-- 入力エリア３ -->
    <g fill="none">
      <rect stroke-width="0.4" x="10.2" y="149.4" rx="2" ry="2" width="254.5" height="18.6" />
      <path d="M164.5,153L233,153M35,156.2L264.7,156.2M35,162L264.7,162" />
      <path d="M35,149.4L35,168M68,149.4L68,168M81.1,149.4L81.1,168M101,149.4L101,168M164.5,149.4L164.5,168M188.5,153L188.5,168M201.5,153L201.5,168M233,149.4L233,168" />
    </g>
    <g stroke="none" font-size="3">
      <text x="11.2" y="159.20">D</text>
      <text text-anchor="middle" x="25.10" y="156.20" class="bold-label" textLength="18">他の所得者が</text>
      <text text-anchor="middle" x="25.10" y="159.20" class="bold-label" textLength="18">控除を受ける</text>
      <text text-anchor="middle" x="25.10" y="162.20" class="bold-label" textLength="18">扶養親族等</text>
      <text text-anchor="middle" x="51.50" y="153.30">氏名</text>
      <text font-size="2.5" letter-spacing="-0.5" text-anchor="middle" x="74.55" y="152.30">あなたとの</text>
      <text font-size="2.5" letter-spacing="-0.5" text-anchor="middle" x="74.55" y="154.80">続柄</text>
      <text text-anchor="middle" x="91.05" y="153.30">生年月日</text>
      <text font-size="2" x="81.6" y="158.10">明・大</text>
      <text font-size="2" x="81.6" y="160.10">昭・平</text>
      <text text-anchor="middle" x="91.7" y="159.60">・</text>
      <text text-anchor="middle" x="97.4" y="159.60">・</text>
      <text font-size="2" x="81.6" y="164.00">明・大</text>
      <text font-size="2" x="81.6" y="166.10">昭・平</text>
      <text text-anchor="middle" x="91.7" y="165.50">・</text>
      <text text-anchor="middle" x="97.4" y="165.50">・</text>
      <text text-anchor="middle" x="132.75" y="153.30">住所又は居所</text>
      <text text-anchor="middle" x="198.75" y="151.70">控除を受ける他の所得者</text>
      <text text-anchor="middle" x="176.50" y="155.10">氏名</text>
      <text font-size="1.5" letter-spacing="-0.5" text-anchor="middle" x="195.00" y="154.85">あなたとの続柄</text>
      <text text-anchor="middle" x="217.25" y="155.10">住所又は居所</text>
      <text text-anchor="middle" x="248.85" y="153.30">異動月日及び事由</text>
    </g>

    <!-- 入力エリア４ -->
    <g fill="none">
      <rect stroke-width="0.4" x="10.2" y="173.4" rx="2" ry="2" width="254.5" height="22.3" />
      <path d="M35,179.2L264.7,179.2M38,181.6L68,181.6M35,184.6L264.7,184.6M38,187.1L68,187.1M35,190L264.7,190M38,192.6L68,192.6" />
      <path d="M35,173.4L35,195.7M68,173.4L68,195.7M120.5,173.4L120.5,195.7M131.5,173.4L131.5,195.7M151,173.4L151,195.7M203.5,173.4L203.5,195.7M216.5,173.4L216.5,195.7M233,173.4L233,195.7M85.5,180.6L85.5,184.6M103,180.6L103,184.6M85.5,186.1L85.5,190M103,186.1L103,190M85.5,191.6L85.5,195.7M103,191.6L103,195.7" />
      <path stroke-dasharray="0.2 0.2" d="M72.4,181.6L72.4,184.6M76.8,181.6L76.8,184.6M81.1,181.6L81.1,184.6M89.9,181.6L89.9,184.6M94.3,181.6L94.3,184.6M98.7,181.6L98.7,184.6M107.5,181.6L107.5,184.6M111.8,181.6L111.8,184.6M116.3,181.6L116.3,184.6M72.4,187.1L72.4,190M76.8,187.1L76.8,190M81.1,187.1L81.1,190M89.9,187.1L89.9,190M94.3,187.1L94.3,190M98.7,187.1L98.7,190M107.5,187.1L107.5,190M111.8,187.1L111.8,190M116.3,187.1L116.3,190M72.4,192.6L72.4,195.7M76.8,192.6L76.8,195.7M81.1,192.6L81.1,195.7M89.9,192.6L89.9,195.7M94.3,192.6L94.3,195.7M98.7,192.6L98.7,195.7M107.5,192.6L107.5,195.7M111.8,192.6L111.8,195.7M116.3,192.6L116.3,195.7" />
    </g>
    <g stroke="none" font-size="3">
      <text font-size="2.5" letter-spacing="-0.5" x="11.2" y="171.45" class="bold-label">〇住民税に関する事項</text>
      <text text-anchor="middle" x="22.60" y="182.05" class="bold-label" textLength="16">16歳未満の</text>
      <text text-anchor="middle" x="22.60" y="185.05" class="bold-label" textLength="16">扶養親族</text>
      <text text-anchor="middle" x="22.60" y="188.05" class="bold-label">（平15.1.2以後生）</text>
      <text font-size="2.5" letter-spacing="-0.5" text-anchor="middle" x="51.50" y="175.80">（フリガナ）</text>
      <text font-size="2.5" letter-spacing="-0.5" text-anchor="middle" x="51.50" y="178.30">氏名</text>
      <text text-anchor="end" x="37.5" y="182.1">1</text>
      <text text-anchor="end" x="37.5" y="187.6">2</text>
      <text text-anchor="end" x="37.5" y="193.1">3</text>
      <text text-anchor="middle" x="94.25" y="176.80">個人番号</text>
      <text font-size="2" text-anchor="middle" x="126.00" y="175.30">あなたとの</text>
      <text font-size="2" text-anchor="middle" x="126.00" y="177.30">続柄</text>
      <text text-anchor="middle" x="141.25" y="176.80">生年月日</text>
      <text font-size="2" x="132" y="180.7">平</text>
      <text text-anchor="middle" x="140.5" y="182.40">・</text>
      <text text-anchor="middle" x="145.5" y="182.40">・</text>
      <text font-size="2" x="132" y="186.1">平</text>
      <text text-anchor="middle" x="140.5" y="187.80">・</text>
      <text text-anchor="middle" x="145.5" y="187.80">・</text>
      <text font-size="2" x="132" y="191.5">平</text>
      <text text-anchor="middle" x="140.5" y="193.35">・</text>
      <text text-anchor="middle" x="145.5" y="193.35">・</text>
      <text text-anchor="middle" x="177.25" y="176.80">住所又は居所</text>
      <text font-size="1.5" letter-spacing="-0.5" text-anchor="middle" x="210.00" y="175.80">控除対象外</text>
      <text font-size="1.5" letter-spacing="-0.5" text-anchor="middle" x="210.00" y="177.30">国外扶養親族</text>
      <text font-size="1.5" letter-spacing="-0.5" text-anchor="middle" x="224.75" y="175.80">平成30年中の</text>
      <text font-size="1.5" letter-spacing="-0.5" text-anchor="middle" x="224.75" y="177.30">所得の見積額</text>
      <text font-size="2.5" text-anchor="end" x="232.5" y="182.40">円</text>
      <text font-size="2.5" text-anchor="end" x="232.5" y="187.80">円</text>
      <text font-size="2.5" text-anchor="end" x="232.5" y="193.35">円</text>
      <text text-anchor="middle" x="248.85" y="176.80">異動月日及び事由</text>
      <text font-size="2.5" letter-spacing="-0.5" x="11.2" y="198.7" class="bold-label" textLength="252">◎「16歳未満の扶養親族」欄は、地方税法第45条の3の2第1項及び第2項並びに第317条の3の2第1項及び第2項に基づき、給与の支払者を経由して市区町村長に提出しなければならないとされている</text>
      <text font-size="2.5" letter-spacing="-0.5" x="11.2" y="201.2" class="bold-label" textLength="72">　給与所得者の扶養親族申告書の記載欄を兼ねています。</text>
    </g>

    <!-- 注意書き等 -->
    <g fill="none">
      <circle stroke-width="0.4" cx="277.9" cy="18.2" r="7" />
      <circle stroke-dasharray="0.2 0.2" cx="277.95" cy="35.75" r="6.25" />
    </g>
    <g stroke="none" font-size="2.5">
      <text font-size="7" text-anchor="middle" x="277.9" y="20.7" font-family="sans-serif" font-weight="700">扶</text>
	  <!-- textPath, transform は rsvgでは消えるがブラウザでは有効。fallbackとして二重に書く -->
      <text font-size="2" text-anchor="middle" x="277.95" y="27.5" transform="scale(0,0)">給与の支払者受付印</text>
      <text font-size="2" text-anchor="middle"><textPath xlink:href="#label-mark-by-employer" startOffset="50%" letter-spacing="0.4">給与の支払者受付印</textPath></text>
	  <g transform="translate(-1.5,1)"><!-- 縦書き補正 -->
        <text letter-spacing="-0.5" writing-mode="tb-rl" x="286.4" y="43.9" textLength="134">◎この申告書は、あなたの給与について扶養控除、障害者控除などの控除を受けるために提出するものです。</text>
        <text letter-spacing="-0.5" writing-mode="tb-rl" x="283.4" y="43.9" textLength="150">◎この申告書は、源泉控除対象配偶者、障害者に該当する同一生計配偶者及び扶養親族に該当する人がいない人も提出する</text>
        <text letter-spacing="-0.5" writing-mode="tb-rl" x="280.4" y="43.9" textLength="24">　必要があります。</text>
        <text letter-spacing="-0.5" writing-mode="tb-rl" x="277.4" y="43.9" textLength="150">◎この申告書は、２か所以上から給与の支払を受けている場合には、そのうちの１か所にしか提出することができません。</text>
        <text letter-spacing="-0.5" writing-mode="tb-rl" x="274.4" y="43.9" textLength="112">◎<tspan  font-weight="bold" font-family="sans-serif">この申告書の記載に当たっては、裏面の「申告についてのご注意」等をお読みください。</tspan></text>
	  </g>
    </g>
  </g>
  
  <!--
    - 入力
    -->
  <g id="forms" fill="blue" stroke="blue" stroke-width="0.2" font-size="3" font-family="monospace">
    <!-- 所轄税務署長等 -->
    <g stroke="none" font-size="3">
      <text text-anchor="middle" x="22.60" y="23.50">麹町</text>
      <text text-anchor="middle" x="22.60" y="35.35">板橋</text>
    </g>

    <!-- 給与支払者 -->
    <g stroke="none" font-size="3">
      <text text-anchor="middle" x="88.00" y="17.60">株式会社　〇〇〇〇</text>
      <text letter-spacing="2.85" x="61.5" y="28.65">1122334455667</text>
      <text text-anchor="middle" x="88.00" y="36.35">東京都千代田区霞が関３</text>
    </g>

    <!-- 申告対象者 -->
    <g fill="none">
      <!-- 生年月日 -->
      <ellipse cx="205.85" cy="12.85" rx="1.5" ry="1.5" />
      <ellipse cx="210.85" cy="12.85" rx="1.5" ry="1.5" />
      <ellipse cx="205.85" cy="15.35" rx="1.5" ry="1.5" />
      <ellipse cx="210.85" cy="15.35" rx="1.5" ry="1.5" />

      <!-- 配偶者の有無 -->
      <ellipse cx="236.55" cy="35.85" rx="1.5" ry="1.5" />
      <ellipse cx="241.55" cy="35.85" rx="1.5" ry="1.5" />
    </g>
    <g stroke="none" font-size="3">
      <!-- 氏名 -->
      <text text-anchor="middle" x="158.60" y="13.75">サトウ　カズオ</text>
      <text text-anchor="middle" x="158.60" y="19.65">佐藤　和夫</text>

      <!-- 個人番号 -->
      <text letter-spacing="2.85" x="138" y="28.65">112233445566</text>
      
      <!-- 生年月日 -->
      <text text-anchor="end" x="217.7" y="14.60">42</text>
      <text text-anchor="end" x="228.3" y="14.60">10</text>
      <text text-anchor="end" x="239.3" y="14.60">30</text>

      <!-- 世帯主の氏名 -->
      <text text-anchor="middle" x="225.15" y="20.50">佐藤　和夫</text>

      <!-- 続柄 -->
      <text text-anchor="middle" x="225.15" y="27.50">本人</text>

      <!-- 住所 -->
      <text font-size="2.5" letter-spacing="0" text-anchor="end" x="155.5" y="33.5">012</text>
      <text font-size="2.5" letter-spacing="0" text-anchor="end" x="168.2" y="33.5">3456</text>
      <text x="137.1" y="37.85">東京都千代田区霞が関３</text>
    </g>

    <!-- 従たる給与についての～ -->
    <g fill="none">
      <ellipse cx="255.45" cy="37.35" rx="1.5" ry="1.5" />
    </g>

    <!-- 源泉控除対象配偶者 -->
    <g fill="none">
      <!-- 生年月日 -->
      <ellipse cx="99.8" cy="66.1" rx="1.5" ry="1.5" />
      <ellipse cx="103.8" cy="66.1" rx="1.5" ry="1.5" />
      <ellipse cx="99.8" cy="68.6" rx="1.5" ry="1.5" />
      <ellipse cx="103.8" cy="68.6" rx="1.5" ry="1.5" />

      <!-- 非居住者である親族 -->
      <ellipse cx="151.75" cy="67.35" rx="1.5" ry="1.5" />
    </g>
    <g stroke="none">
      <!-- 氏名 -->
      <text text-anchor="middle" x="53.10" y="60.05">サトウ　ヨウコ</text>
      <text text-anchor="middle" x="53.10" y="66.30">佐藤　洋子</text>

      <!-- 個人番号 -->
      <text letter-spacing="3" x="73.2" y="63.10">223344556677</text>

      <!-- 生年月日 -->
      <text text-anchor="end" x="109.8" y="67.85">42</text>
      <text text-anchor="end" x="118.1" y="67.85">10</text>
      <text text-anchor="end" x="124.4" y="67.85">30</text>

      <!-- 平成30年中の所得の見積額 -->
      <text text-anchor="end" x="170.2" y="61.10">1,000,000</text>

      <!-- 住所又は居所 -->
      <text x="176.2" y="64.35">東京都板橋区大山東町35-1</text>

      <!-- 異動月日及び事由 -->
      <text x="234" y="60.6">
        <tspan x="234" dy="0">異動月日</tspan>
        <tspan x="234" dy="3">事由</tspan>
      </text>
    </g>

    <!-- 控除対象扶養親族１ -->
    <g fill="none">
      <!-- 生年月日 -->
      <ellipse cx="99.80" cy="78.60" rx="1.5" ry="1.5"></ellipse>
      <ellipse cx="103.80" cy="78.60" rx="1.5" ry="1.5"></ellipse>
      <ellipse cx="99.80" cy="81.10" rx="1.5" ry="1.5"></ellipse>
      <ellipse cx="103.80" cy="81.10" rx="1.5" ry="1.5"></ellipse>

      <!-- 非居住者である親族 -->
      <ellipse cx="151.75" cy="79.85" rx="1.5" ry="1.5"></ellipse>
    </g>
    <g stroke="none">
      <!-- 氏名 -->
      <text text-anchor="middle" x="53.10" y="72.55">サトウ　ヨウコ</text>
      <text text-anchor="middle" x="53.10" y="78.80">佐藤　洋子</text>

      <!-- 個人番号 -->
      <text letter-spacing="3" x="73.20" y="75.60">223344556677</text>

      <!-- 続柄 -->
      <text text-anchor="middle" x="84.75" y="80.35">子</text>

      <!-- 生年月日 -->
      <text text-anchor="end" x="109.80" y="80.35">42</text>
      <text text-anchor="end" x="118.10" y="80.35">10</text>
      <text text-anchor="end" x="124.40" y="80.35">30</text>

      <!-- 扶養親族 -->
      <text x="126.4" y="72.6">✓</text>
      <text x="126.4" y="75.1">✓</text>
      <text x="126.4" y="79.85">✓</text>

      <!-- 平成30年中の所得の見積額 -->
      <text text-anchor="end" x="170.20" y="73.60">1,000,000</text>

      <!-- 生計を一にする事実 -->
      <text text-anchor="end" x="174.20" y="80.35">1,000,000</text>

      <!-- 住所又は居所 -->
      <text x="176.20" y="76.85">東京都板橋区大山東町35-1</text>

      <!-- 異動月日及び事由 -->
      <text x="234.00" y="73.10">
        <tspan x="234" dy="0">異動月日</tspan>
        <tspan x="234" dy="3">事由</tspan>
      </text>
    </g>

    <!-- 控除対象扶養親族２ -->
    <g fill="none">
      <!-- 生年月日 -->
      <ellipse cx="99.80" cy="91.10" rx="1.5" ry="1.5"></ellipse>
      <ellipse cx="103.80" cy="91.10" rx="1.5" ry="1.5"></ellipse>
      <ellipse cx="99.80" cy="93.60" rx="1.5" ry="1.5"></ellipse>
      <ellipse cx="103.80" cy="93.60" rx="1.5" ry="1.5"></ellipse>

      <!-- 非居住者である親族 -->
      <ellipse cx="151.75" cy="92.35" rx="1.5" ry="1.5"></ellipse>
    </g>
    <g stroke="none">
      <!-- 氏名 -->
      <text text-anchor="middle" x="53.10" y="85.05">サトウ　ヨウコ</text>
      <text text-anchor="middle" x="53.10" y="91.30">佐藤　洋子</text>

      <!-- 個人番号 -->
      <text letter-spacing="3" x="73.20" y="88.10">223344556677</text>

      <!-- 続柄 -->
      <text text-anchor="middle" x="84.75" y="92.85">子</text>

      <!-- 生年月日 -->
      <text text-anchor="end" x="109.80" y="92.85">42</text>
      <text text-anchor="end" x="118.10" y="92.85">10</text>
      <text text-anchor="end" x="124.40" y="92.85">30</text>

      <!-- 扶養親族 -->
      <text x="126.40" y="85.10">✓</text>
      <text x="126.40" y="87.60">✓</text>
      <text x="126.40" y="92.35">✓</text>

      <!-- 平成30年中の所得の見積額 -->
      <text text-anchor="end" x="170.20" y="86.10">1,000,000</text>

      <!-- 生計を一にする事実 -->
      <text text-anchor="end" x="174.20" y="92.85">1,000,000</text>

      <!-- 住所又は居所 -->
      <text x="176.20" y="89.35">東京都板橋区大山東町35-1</text>

      <!-- 異動月日及び事由 -->
      <text x="234.00" y="85.60">
        <tspan x="234" dy="0">異動月日</tspan>
        <tspan x="234" dy="3">事由</tspan>
      </text>
    </g>

    <!-- 控除対象扶養親族３ -->
    <g fill="none">
      <!-- 生年月日 -->
      <ellipse cx="99.80" cy="103.70" rx="1.5" ry="1.5"></ellipse>
      <ellipse cx="103.80" cy="103.70" rx="1.5" ry="1.5"></ellipse>
      <ellipse cx="99.80" cy="106.20" rx="1.5" ry="1.5"></ellipse>
      <ellipse cx="103.80" cy="106.20" rx="1.5" ry="1.5"></ellipse>

      <!-- 非居住者である親族 -->
      <ellipse cx="151.75" cy="104.95" rx="1.5" ry="1.5"></ellipse>
    </g>
    <g stroke="none">
      <!-- 氏名 -->
      <text text-anchor="middle" x="53.10" y="97.65">サトウ　ヨウコ</text>
      <text text-anchor="middle" x="53.10" y="103.90">佐藤　洋子</text>

      <!-- 個人番号 -->
      <text letter-spacing="3" x="73.20" y="100.70">223344556677</text>

      <!-- 続柄 -->
      <text text-anchor="middle" x="84.75" y="105.45">子</text>

      <!-- 生年月日 -->
      <text text-anchor="end" x="109.80" y="105.45">42</text>
      <text text-anchor="end" x="118.10" y="105.45">10</text>
      <text text-anchor="end" x="124.40" y="105.45">30</text>

      <!-- 扶養親族 -->
      <text x="126.40" y="97.70">✓</text>
      <text x="126.40" y="100.20">✓</text>
      <text x="126.40" y="104.95">✓</text>

      <!-- 平成30年中の所得の見積額 -->
      <text text-anchor="end" x="170.20" y="98.70">1,000,000</text>

      <!-- 生計を一にする事実 -->
      <text text-anchor="end" x="174.20" y="105.45">1,000,000</text>

      <!-- 住所又は居所 -->
      <text x="176.20" y="101.95">東京都板橋区大山東町35-1</text>

      <!-- 異動月日及び事由 -->
      <text x="234.00" y="98.20">
        <tspan x="234" dy="0">異動月日</tspan>
        <tspan x="234" dy="3">事由</tspan>
      </text>
    </g>

    <!-- 控除対象扶養親族４ -->
    <g fill="none">
      <!-- 生年月日 -->
      <ellipse cx="99.80" cy="116.20" rx="1.5" ry="1.5"></ellipse>
      <ellipse cx="103.80" cy="116.20" rx="1.5" ry="1.5"></ellipse>
      <ellipse cx="99.80" cy="118.70" rx="1.5" ry="1.5"></ellipse>
      <ellipse cx="103.80" cy="118.70" rx="1.5" ry="1.5"></ellipse>

      <!-- 非居住者である親族 -->
      <ellipse cx="151.75" cy="117.45" rx="1.5" ry="1.5"></ellipse>
    </g>
    <g stroke="none">
      <!-- 氏名 -->
      <text text-anchor="middle" x="53.10" y="110.15">サトウ　ヨウコ</text>
      <text text-anchor="middle" x="53.10" y="116.40">佐藤　洋子</text>

      <!-- 個人番号 -->
      <text letter-spacing="3" x="73.20" y="113.20">223344556677</text>

      <!-- 続柄 -->
      <text text-anchor="middle" x="84.75" y="117.95">子</text>

      <!-- 生年月日 -->
      <text text-anchor="end" x="109.80" y="117.95">42</text>
      <text text-anchor="end" x="118.10" y="117.95">10</text>
      <text text-anchor="end" x="124.40" y="117.95">30</text>

      <!-- 扶養親族 -->
      <text x="126.40" y="110.20">✓</text>
      <text x="126.40" y="112.70">✓</text>
      <text x="126.40" y="117.45">✓</text>

      <!-- 平成30年中の所得の見積額 -->
      <text text-anchor="end" x="170.20" y="111.20">1,000,000</text>

      <!-- 生計を一にする事実 -->
      <text text-anchor="end" x="174.20" y="117.95">1,000,000</text>

      <!-- 住所又は居所 -->
      <text x="176.20" y="114.45">東京都板橋区大山東町35-1</text>

      <!-- 異動月日及び事由 -->
      <text x="234.00" y="110.70">
        <tspan x="234" dy="0">異動月日</tspan>
        <tspan x="234" dy="3">事由</tspan>
      </text>
    </g>

    <!-- 障害者、寡婦、寡夫又は勤労学生 -->
    <g stroke="none" font-size="3">
      <!-- 障害者 -->
      <text x="36.55" y="124.55">✓</text>

      <!-- 一般・本人 -->
      <text text-anchor="middle" x="73.60" y="131.25">✓</text>
      <!-- 一般・同一生計配偶者 -->
      <text text-anchor="middle" x="86.65" y="131.25">✓</text>
      <!-- 一般・扶養親族 -->
      <text text-anchor="middle" x="96.65" y="131.25">✓</text>
      <text text-anchor="end" x="103.1" y="131.25">1</text>
      
      <!-- 特別・本人 -->
      <text text-anchor="middle" x="73.60" y="137.00">✓</text>
      <!-- 特別・同一生計配偶者 -->
      <text text-anchor="middle" x="86.65" y="137.00">✓</text>
      <!-- 特別・扶養親族 -->
      <text text-anchor="middle" x="96.65" y="137.00">✓</text>
      <text text-anchor="end" x="103.1" y="137.00">1</text>
      
      <!-- 同居特別・同一生計配偶者 -->
      <text text-anchor="middle" x="86.65" y="142.75">✓</text>
      <!-- 同居特別・扶養親族 -->
      <text text-anchor="middle" x="96.65" y="142.75">✓</text>
      <text text-anchor="end" x="103.1" y="142.75">1</text>

      <!-- 寡婦 -->
      <text x="107.1" y="124.55">✓</text>

      <!-- 特別の寡婦 -->
      <text x="107.1" y="131">✓</text>

      <!-- 寡夫 -->
      <text x="107.1" y="136.75">✓</text>

      <!-- 勤労学生 -->
      <text x="107.1" y="142.5">✓</text>
      
      <!-- 左記の内容 -->
      <text x="126.4" y="127.5">
        <tspan x="126.4" dy="0">佐藤隆雄、身体障害者3級　身体障害者手帳　平成25年4月11日交付</tspan>
      </text>

      <!-- 異動月日及び事由 -->
      <text x="234" y="127.5">
        <tspan x="234" dy="0">異動月日</tspan>
        <tspan x="234" dy="3">事由</tspan>
      </text>
    </g>

    <!-- 他の所得者が控除を受ける扶養親族等１ -->
    <g fill="none">
      <!-- 生年月日 -->
      <ellipse cx="82.6" cy="158.10" rx="1.5" ry="1.5" />
      <ellipse cx="86.6" cy="158.10" rx="1.5" ry="1.5" />
      <ellipse cx="82.6" cy="160.10" rx="1.5" ry="1.5" />
      <ellipse cx="86.6" cy="160.10" rx="1.5" ry="1.5" />
    </g>
    <g stroke="none" font-size="3">
      <!-- 氏名 -->
      <text text-anchor="middle" x="51.50" y="159.60">佐藤　洋子</text>

      <!-- 続柄 -->
      <text text-anchor="middle" x="74.55" y="159.60">子</text>

      <!-- 生年月日 -->
      <text text-anchor="end" x="91.2" y="159.60">46</text>
      <text text-anchor="end" x="95.9" y="159.60">10</text>
      <text text-anchor="end" x="100.5" y="159.60">30</text>

      <!-- 住所又は居所 -->
      <text x="102" y="159.60">東京都板橋区大山東町35-1</text>

      <!-- 控除を受けるほかの所得者：氏名 -->
      <text text-anchor="middle" x="176.50" y="159.60">佐藤　洋子</text>

      <!-- 控除を受けるほかの所得者：続柄 -->
      <text text-anchor="middle" x="195.00" y="159.60">子</text>

      <!-- 控除を受けるほかの所得者：住所又は居所 -->
      <text font-size="2" text-anchor="middle" x="217.25" y="159.10">
        <tspan x="217.25" dx="0" dy="-1">東京都板橋区</tspan>
        <tspan x="217.25" dx="0" dy="2">大山東町35-1</tspan>
      </text>

      <!-- 異動月日及び事由 -->
      <text font-size="2" text-anchor="middle" x="248.85" y="159.10">
        <tspan x="248.85" dx="0" dy="-1">異動月日</tspan>
        <tspan x="248.85" dx="0" dy="2">事由</tspan>
      </text>
    </g>

    <!-- 他の所得者が控除を受ける扶養親族等２ -->
    <g fill="none">
      <!-- 生年月日 -->
      <ellipse cx="82.60" cy="163.90" rx="1.5" ry="1.5"></ellipse>
      <ellipse cx="86.60" cy="163.90" rx="1.5" ry="1.5"></ellipse>
      <ellipse cx="82.60" cy="165.90" rx="1.5" ry="1.5"></ellipse>
      <ellipse cx="86.60" cy="165.90" rx="1.5" ry="1.5"></ellipse>
    </g>
    <g stroke="none" font-size="3">
      <!-- 氏名 -->
      <text text-anchor="middle" x="51.50" y="165.40">佐藤　洋子</text>

      <!-- 続柄 -->
      <text text-anchor="middle" x="74.55" y="165.40">子</text>

      <!-- 生年月日 -->
      <text text-anchor="end" x="91.20" y="165.40">46</text>
      <text text-anchor="end" x="95.90" y="165.40">10</text>
      <text text-anchor="end" x="100.50" y="165.40">30</text>

      <!-- 住所又は居所 -->
      <text x="102.00" y="165.40">東京都板橋区大山東町35-1</text>

      <!-- 控除を受けるほかの所得者：氏名 -->
      <text text-anchor="middle" x="176.50" y="165.40">佐藤　洋子</text>

      <!-- 控除を受けるほかの所得者：続柄 -->
      <text text-anchor="middle" x="195.00" y="165.40">子</text>

      <!-- 控除を受けるほかの所得者：住所又は居所 -->
      <text font-size="2" text-anchor="middle" x="217.25" y="164.90">
        <tspan x="217.25" dx="0" dy="-1">東京都板橋区</tspan>
        <tspan x="217.25" dx="0" dy="2">大山東町35-1</tspan>
      </text>

      <!-- 異動月日及び事由 -->
      <text font-size="2" text-anchor="middle" x="248.85" y="164.90">
        <tspan x="248.85" dx="0" dy="-1">異動月日</tspan>
        <tspan x="248.85" dx="0" dy="2">事由</tspan>
      </text>
    </g>

    <!-- 16歳未満の扶養親族１ -->
    <g fill="none">
      <ellipse cx="210.00" cy="181.90" rx="1.5" ry="1.5" />
    </g>
    <g stroke="none" font-size="3">
      <!-- 氏名 -->
      <text font-size="2" text-anchor="middle" x="53.00" y="180.40">サトウ　マサル</text>
      <text font-size="2" text-anchor="middle" x="53.00" y="183.10">佐藤　勝 </text>

      <!-- 個人番号 -->
      <text letter-spacing="2.85" x="69.9" y="183.60">556677889900</text>

      <!-- 続柄 -->
      <text text-anchor="middle" x="126.00" y="182.40">子</text>

      <!-- 生年月日 -->
      <text text-anchor="end" x="139" y="182.40">16</text>
      <text text-anchor="end" x="144" y="182.40">10</text>
      <text text-anchor="end" x="149" y="182.40">15</text>

      <!-- 住所又は居所 -->
      <text text-anchor="middle" x="177.25" y="182.40">東京都板橋区大山東町35-1</text>

      <!-- 平成30年中の所得の見積額 -->
      <text font-size="2" text-anchor="end" x="229" y="181.90">1,000,000</text>

      <!-- 異動月日及び事由 -->
      <text font-size="2" x="234" y="180.90">
        <tspan x="234" dy="0">異動月日</tspan>
        <tspan x="234" dy="2">事由</tspan>
      </text>
    </g>

    <!-- 16歳未満の扶養親族２ -->
    <g fill="none">
      <ellipse cx="210.00" cy="187.30" rx="1.5" ry="1.5"></ellipse>
    </g>
    <g stroke="none" font-size="3">
      <!-- 氏名 -->
      <text font-size="2" text-anchor="middle" x="53.00" y="185.80">サトウ　マサル</text>
      <text font-size="2" text-anchor="middle" x="53.00" y="188.50">佐藤　勝 </text>

      <!-- 個人番号 -->
      <text letter-spacing="2.85" x="69.90" y="189.00">556677889900</text>

      <!-- 続柄 -->
      <text text-anchor="middle" x="126.00" y="187.80">子</text>

      <!-- 生年月日 -->
      <text text-anchor="end" x="139.00" y="187.80">16</text>
      <text text-anchor="end" x="144.00" y="187.80">10</text>
      <text text-anchor="end" x="149.00" y="187.80">15</text>

      <!-- 住所又は居所 -->
      <text text-anchor="middle" x="177.25" y="187.80">東京都板橋区大山東町35-1</text>

      <!-- 平成30年中の所得の見積額 -->
      <text font-size="2" text-anchor="end" x="229.00" y="187.30">1,000,000</text>

      <!-- 異動月日及び事由 -->
      <text font-size="2" x="234.00" y="186.30">
        <tspan x="234" dy="0">異動月日</tspan>
        <tspan x="234" dy="2">事由</tspan>
      </text>
    </g>

    <!-- 16歳未満の扶養親族３ -->
    <g fill="none">
      <ellipse cx="210.00" cy="192.70" rx="1.5" ry="1.5"></ellipse>
    </g>
    <g stroke="none" font-size="3">
      <!-- 氏名 -->
      <text font-size="2" text-anchor="middle" x="53.00" y="191.20">サトウ　マサル</text>
      <text font-size="2" text-anchor="middle" x="53.00" y="193.90">佐藤　勝 </text>

      <!-- 個人番号 -->
      <text letter-spacing="2.85" x="69.90" y="194.40">556677889900</text>

      <!-- 続柄 -->
      <text text-anchor="middle" x="126.00" y="193.20">子</text>

      <!-- 生年月日 -->
      <text text-anchor="end" x="139.00" y="193.20">16</text>
      <text text-anchor="end" x="144.00" y="193.20">10</text>
      <text text-anchor="end" x="149.00" y="193.20">15</text>

      <!-- 住所又は居所 -->
      <text text-anchor="middle" x="177.25" y="193.20">東京都板橋区大山東町35-1</text>

      <!-- 平成30年中の所得の見積額 -->
      <text font-size="2" text-anchor="end" x="229.00" y="192.70">1,000,000</text>

      <!-- 異動月日及び事由 -->
      <text font-size="2" x="234.00" y="191.70">
        <tspan x="234" dy="0">異動月日</tspan>
        <tspan x="234" dy="2">事由</tspan>
      </text>
    </g>
  </g>
  
  <defs>
    <g id="c-stamp-m" fill="black" stroke="black">
      <text font-size="3" stroke="none" text-anchor="middle" x="0" y="0.5">印</text>
      <circle fill="none" cx="0" cy="0" r="2" />
    </g>
    <path id="label-mark-by-employer" d="M270.5,35.75 c0,-4.5 3.0,-7.5 7.5,-7.5  c4.5,0 7.5,3.0 7.5,7.5" />
  </defs>
</svg>
